<mxfile host="app.diagrams.net" modified="2023-04-26T11:48:18.297Z" agent="Mozilla/5.0 (Windows NT 10.0; Win64; x64) AppleWebKit/537.36 (KHTML, like Gecko) Chrome/112.0.0.0 Safari/537.36 Edg/112.0.1722.58" etag="_jF8J8MsrSpl_CzgbJq2" version="21.2.2" type="device">
  <diagram name="第 1 页" id="Saa5mkI8FhTBec15dKhs">
    <mxGraphModel dx="1050" dy="549" grid="1" gridSize="10" guides="1" tooltips="1" connect="1" arrows="1" fold="1" page="1" pageScale="1" pageWidth="827" pageHeight="1169" math="0" shadow="0">
      <root>
        <mxCell id="0" />
        <mxCell id="1" parent="0" />
        <mxCell id="vQBDDhqK6n7n9c23TMIv-37" style="edgeStyle=orthogonalEdgeStyle;rounded=0;orthogonalLoop=1;jettySize=auto;html=1;" edge="1" parent="1" source="vQBDDhqK6n7n9c23TMIv-33" target="vQBDDhqK6n7n9c23TMIv-35">
          <mxGeometry relative="1" as="geometry">
            <Array as="points">
              <mxPoint x="399" y="120" />
              <mxPoint x="330" y="120" />
            </Array>
          </mxGeometry>
        </mxCell>
        <mxCell id="vQBDDhqK6n7n9c23TMIv-48" style="edgeStyle=orthogonalEdgeStyle;rounded=0;orthogonalLoop=1;jettySize=auto;html=1;" edge="1" parent="1" source="vQBDDhqK6n7n9c23TMIv-33" target="vQBDDhqK6n7n9c23TMIv-39">
          <mxGeometry relative="1" as="geometry">
            <Array as="points">
              <mxPoint x="399" y="120" />
              <mxPoint x="470" y="120" />
            </Array>
          </mxGeometry>
        </mxCell>
        <mxCell id="vQBDDhqK6n7n9c23TMIv-49" style="edgeStyle=orthogonalEdgeStyle;rounded=0;orthogonalLoop=1;jettySize=auto;html=1;" edge="1" parent="1" source="vQBDDhqK6n7n9c23TMIv-33" target="vQBDDhqK6n7n9c23TMIv-40">
          <mxGeometry relative="1" as="geometry">
            <Array as="points">
              <mxPoint x="399" y="120" />
              <mxPoint x="180" y="120" />
            </Array>
          </mxGeometry>
        </mxCell>
        <mxCell id="vQBDDhqK6n7n9c23TMIv-50" style="edgeStyle=orthogonalEdgeStyle;rounded=0;orthogonalLoop=1;jettySize=auto;html=1;" edge="1" parent="1" source="vQBDDhqK6n7n9c23TMIv-33" target="vQBDDhqK6n7n9c23TMIv-41">
          <mxGeometry relative="1" as="geometry">
            <Array as="points">
              <mxPoint x="399" y="120" />
              <mxPoint x="620" y="120" />
            </Array>
          </mxGeometry>
        </mxCell>
        <mxCell id="vQBDDhqK6n7n9c23TMIv-33" value="&lt;font color=&quot;#0000cc&quot;&gt;header&lt;/font&gt;" style="sketch=0;outlineConnect=0;fontColor=#232F3E;gradientColor=none;fillColor=#232F3D;strokeColor=none;dashed=0;verticalLabelPosition=bottom;verticalAlign=top;align=center;html=1;fontSize=12;fontStyle=0;aspect=fixed;pointerEvents=1;shape=mxgraph.aws4.folder;" vertex="1" parent="1">
          <mxGeometry x="374" y="30" width="50" height="45.51" as="geometry" />
        </mxCell>
        <mxCell id="vQBDDhqK6n7n9c23TMIv-34" value="&lt;font color=&quot;#0000cc&quot;&gt;course.cpp&lt;/font&gt;" style="sketch=0;outlineConnect=0;fontColor=#232F3E;gradientColor=none;fillColor=#232F3D;strokeColor=none;dashed=0;verticalLabelPosition=bottom;verticalAlign=top;align=center;html=1;fontSize=12;fontStyle=0;aspect=fixed;pointerEvents=1;shape=mxgraph.aws4.source_code;" vertex="1" parent="1">
          <mxGeometry x="339" y="390" width="40" height="54.73" as="geometry" />
        </mxCell>
        <mxCell id="vQBDDhqK6n7n9c23TMIv-35" value="&lt;font color=&quot;#0000cc&quot;&gt;record&lt;/font&gt;" style="sketch=0;outlineConnect=0;fontColor=#232F3E;gradientColor=none;fillColor=#232F3D;strokeColor=none;dashed=0;verticalLabelPosition=bottom;verticalAlign=top;align=center;html=1;fontSize=12;fontStyle=0;aspect=fixed;pointerEvents=1;shape=mxgraph.aws4.document;" vertex="1" parent="1">
          <mxGeometry x="310" y="150" width="40" height="54.74" as="geometry" />
        </mxCell>
        <mxCell id="vQBDDhqK6n7n9c23TMIv-38" style="edgeStyle=orthogonalEdgeStyle;rounded=0;orthogonalLoop=1;jettySize=auto;html=1;" edge="1" parent="1" source="vQBDDhqK6n7n9c23TMIv-36" target="vQBDDhqK6n7n9c23TMIv-34">
          <mxGeometry relative="1" as="geometry">
            <Array as="points">
              <mxPoint x="399" y="360" />
              <mxPoint x="359" y="360" />
            </Array>
          </mxGeometry>
        </mxCell>
        <mxCell id="vQBDDhqK6n7n9c23TMIv-47" style="edgeStyle=orthogonalEdgeStyle;rounded=0;orthogonalLoop=1;jettySize=auto;html=1;" edge="1" parent="1" source="vQBDDhqK6n7n9c23TMIv-36" target="vQBDDhqK6n7n9c23TMIv-46">
          <mxGeometry relative="1" as="geometry">
            <Array as="points">
              <mxPoint x="399" y="360" />
              <mxPoint x="444" y="360" />
            </Array>
          </mxGeometry>
        </mxCell>
        <mxCell id="vQBDDhqK6n7n9c23TMIv-51" style="edgeStyle=orthogonalEdgeStyle;rounded=0;orthogonalLoop=1;jettySize=auto;html=1;" edge="1" parent="1" source="vQBDDhqK6n7n9c23TMIv-36" target="vQBDDhqK6n7n9c23TMIv-42">
          <mxGeometry relative="1" as="geometry">
            <Array as="points">
              <mxPoint x="399" y="360" />
              <mxPoint x="270" y="360" />
            </Array>
          </mxGeometry>
        </mxCell>
        <mxCell id="vQBDDhqK6n7n9c23TMIv-52" style="edgeStyle=orthogonalEdgeStyle;rounded=0;orthogonalLoop=1;jettySize=auto;html=1;" edge="1" parent="1" source="vQBDDhqK6n7n9c23TMIv-36" target="vQBDDhqK6n7n9c23TMIv-43">
          <mxGeometry relative="1" as="geometry">
            <Array as="points">
              <mxPoint x="399" y="360" />
              <mxPoint x="530" y="360" />
            </Array>
          </mxGeometry>
        </mxCell>
        <mxCell id="vQBDDhqK6n7n9c23TMIv-53" style="edgeStyle=orthogonalEdgeStyle;rounded=0;orthogonalLoop=1;jettySize=auto;html=1;" edge="1" parent="1" source="vQBDDhqK6n7n9c23TMIv-36" target="vQBDDhqK6n7n9c23TMIv-45">
          <mxGeometry relative="1" as="geometry">
            <Array as="points">
              <mxPoint x="399" y="360" />
              <mxPoint x="620" y="360" />
            </Array>
          </mxGeometry>
        </mxCell>
        <mxCell id="vQBDDhqK6n7n9c23TMIv-56" style="edgeStyle=orthogonalEdgeStyle;rounded=0;orthogonalLoop=1;jettySize=auto;html=1;" edge="1" parent="1" source="vQBDDhqK6n7n9c23TMIv-36" target="vQBDDhqK6n7n9c23TMIv-44">
          <mxGeometry relative="1" as="geometry">
            <Array as="points">
              <mxPoint x="399" y="360" />
              <mxPoint x="180" y="360" />
            </Array>
          </mxGeometry>
        </mxCell>
        <mxCell id="vQBDDhqK6n7n9c23TMIv-36" value="&lt;font color=&quot;#0000cc&quot;&gt;source&lt;/font&gt;" style="sketch=0;outlineConnect=0;fontColor=#232F3E;gradientColor=none;fillColor=#232F3D;strokeColor=none;dashed=0;verticalLabelPosition=bottom;verticalAlign=top;align=center;html=1;fontSize=12;fontStyle=0;aspect=fixed;pointerEvents=1;shape=mxgraph.aws4.folder;" vertex="1" parent="1">
          <mxGeometry x="374" y="270" width="50" height="45.51" as="geometry" />
        </mxCell>
        <mxCell id="vQBDDhqK6n7n9c23TMIv-39" value="&lt;font color=&quot;#0000cc&quot;&gt;table.h&lt;/font&gt;" style="sketch=0;outlineConnect=0;fontColor=#232F3E;gradientColor=none;fillColor=#232F3D;strokeColor=none;dashed=0;verticalLabelPosition=bottom;verticalAlign=top;align=center;html=1;fontSize=12;fontStyle=0;aspect=fixed;pointerEvents=1;shape=mxgraph.aws4.document;" vertex="1" parent="1">
          <mxGeometry x="450" y="150" width="40" height="54.74" as="geometry" />
        </mxCell>
        <mxCell id="vQBDDhqK6n7n9c23TMIv-40" value="&lt;font color=&quot;#0000cc&quot;&gt;common.h&lt;/font&gt;" style="sketch=0;outlineConnect=0;fontColor=#232F3E;gradientColor=none;fillColor=#232F3D;strokeColor=none;dashed=0;verticalLabelPosition=bottom;verticalAlign=top;align=center;html=1;fontSize=12;fontStyle=0;aspect=fixed;pointerEvents=1;shape=mxgraph.aws4.document;" vertex="1" parent="1">
          <mxGeometry x="160" y="150" width="40" height="54.74" as="geometry" />
        </mxCell>
        <mxCell id="vQBDDhqK6n7n9c23TMIv-41" value="&lt;font color=&quot;#0000cc&quot;&gt;manager.h&lt;/font&gt;" style="sketch=0;outlineConnect=0;fontColor=#232F3E;gradientColor=none;fillColor=#232F3D;strokeColor=none;dashed=0;verticalLabelPosition=bottom;verticalAlign=top;align=center;html=1;fontSize=12;fontStyle=0;aspect=fixed;pointerEvents=1;shape=mxgraph.aws4.document;" vertex="1" parent="1">
          <mxGeometry x="600" y="150" width="40" height="54.74" as="geometry" />
        </mxCell>
        <mxCell id="vQBDDhqK6n7n9c23TMIv-42" value="&lt;font color=&quot;#0000cc&quot;&gt;sudent.cpp&lt;/font&gt;" style="sketch=0;outlineConnect=0;fontColor=#232F3E;gradientColor=none;fillColor=#232F3D;strokeColor=none;dashed=0;verticalLabelPosition=bottom;verticalAlign=top;align=center;html=1;fontSize=12;fontStyle=0;aspect=fixed;pointerEvents=1;shape=mxgraph.aws4.source_code;" vertex="1" parent="1">
          <mxGeometry x="250" y="390" width="40" height="54.73" as="geometry" />
        </mxCell>
        <mxCell id="vQBDDhqK6n7n9c23TMIv-43" value="&lt;font color=&quot;#0000cc&quot;&gt;manager.cpp&lt;/font&gt;" style="sketch=0;outlineConnect=0;fontColor=#232F3E;gradientColor=none;fillColor=#232F3D;strokeColor=none;dashed=0;verticalLabelPosition=bottom;verticalAlign=top;align=center;html=1;fontSize=12;fontStyle=0;aspect=fixed;pointerEvents=1;shape=mxgraph.aws4.source_code;" vertex="1" parent="1">
          <mxGeometry x="510" y="390" width="40" height="54.73" as="geometry" />
        </mxCell>
        <mxCell id="vQBDDhqK6n7n9c23TMIv-44" value="&lt;font color=&quot;#0000cc&quot;&gt;common.cpp&lt;/font&gt;" style="sketch=0;outlineConnect=0;fontColor=#232F3E;gradientColor=none;fillColor=#232F3D;strokeColor=none;dashed=0;verticalLabelPosition=bottom;verticalAlign=top;align=center;html=1;fontSize=12;fontStyle=0;aspect=fixed;pointerEvents=1;shape=mxgraph.aws4.source_code;" vertex="1" parent="1">
          <mxGeometry x="160" y="390" width="40" height="54.73" as="geometry" />
        </mxCell>
        <mxCell id="vQBDDhqK6n7n9c23TMIv-45" value="&lt;font color=&quot;#0000cc&quot;&gt;main.cpp&lt;/font&gt;" style="sketch=0;outlineConnect=0;fontColor=#232F3E;gradientColor=none;fillColor=#232F3D;strokeColor=none;dashed=0;verticalLabelPosition=bottom;verticalAlign=top;align=center;html=1;fontSize=12;fontStyle=0;aspect=fixed;pointerEvents=1;shape=mxgraph.aws4.source_code;" vertex="1" parent="1">
          <mxGeometry x="600" y="390" width="40" height="54.73" as="geometry" />
        </mxCell>
        <mxCell id="vQBDDhqK6n7n9c23TMIv-46" value="&lt;font color=&quot;#0000cc&quot;&gt;grade.cpp&lt;/font&gt;" style="sketch=0;outlineConnect=0;fontColor=#232F3E;gradientColor=none;fillColor=#232F3D;strokeColor=none;dashed=0;verticalLabelPosition=bottom;verticalAlign=top;align=center;html=1;fontSize=12;fontStyle=0;aspect=fixed;pointerEvents=1;shape=mxgraph.aws4.source_code;" vertex="1" parent="1">
          <mxGeometry x="424" y="390" width="40" height="54.73" as="geometry" />
        </mxCell>
        <mxCell id="vQBDDhqK6n7n9c23TMIv-57" value="&lt;font color=&quot;#ff33ff&quot;&gt;include&lt;/font&gt;" style="endArrow=open;endSize=12;dashed=1;html=1;rounded=0;exitX=0.5;exitY=0;exitDx=0;exitDy=0;exitPerimeter=0;fillColor=#f8cecc;strokeColor=#FF33FF;" edge="1" parent="1" source="vQBDDhqK6n7n9c23TMIv-44" target="vQBDDhqK6n7n9c23TMIv-40">
          <mxGeometry x="-0.0284" width="160" relative="1" as="geometry">
            <mxPoint x="180" y="360" as="sourcePoint" />
            <mxPoint x="270" y="230" as="targetPoint" />
            <mxPoint as="offset" />
          </mxGeometry>
        </mxCell>
        <mxCell id="vQBDDhqK6n7n9c23TMIv-59" value="&lt;font color=&quot;#ff33ff&quot;&gt;include&lt;/font&gt;" style="endArrow=open;endSize=12;dashed=1;html=1;rounded=0;strokeColor=#FF33FF;" edge="1" parent="1" source="vQBDDhqK6n7n9c23TMIv-34" target="vQBDDhqK6n7n9c23TMIv-35">
          <mxGeometry x="0.1149" width="160" relative="1" as="geometry">
            <mxPoint x="200" y="410" as="sourcePoint" />
            <mxPoint x="200" y="225" as="targetPoint" />
            <mxPoint as="offset" />
            <Array as="points">
              <mxPoint x="360" y="340" />
              <mxPoint x="330" y="340" />
            </Array>
          </mxGeometry>
        </mxCell>
        <mxCell id="vQBDDhqK6n7n9c23TMIv-60" value="" style="endArrow=open;endSize=12;dashed=1;html=1;rounded=0;strokeColor=#FF33FF;" edge="1" parent="1" source="vQBDDhqK6n7n9c23TMIv-46" target="vQBDDhqK6n7n9c23TMIv-35">
          <mxGeometry x="0.035" y="9" width="160" relative="1" as="geometry">
            <mxPoint x="210" y="420" as="sourcePoint" />
            <mxPoint x="210" y="235" as="targetPoint" />
            <mxPoint as="offset" />
            <Array as="points">
              <mxPoint x="444" y="340" />
              <mxPoint x="330" y="340" />
            </Array>
          </mxGeometry>
        </mxCell>
        <mxCell id="vQBDDhqK6n7n9c23TMIv-61" value="" style="endArrow=open;endSize=12;dashed=1;html=1;rounded=0;strokeColor=#FF33FF;" edge="1" parent="1" source="vQBDDhqK6n7n9c23TMIv-43" target="vQBDDhqK6n7n9c23TMIv-41">
          <mxGeometry x="0.004" width="160" relative="1" as="geometry">
            <mxPoint x="220" y="430" as="sourcePoint" />
            <mxPoint x="220" y="245" as="targetPoint" />
            <mxPoint as="offset" />
            <Array as="points">
              <mxPoint x="530" y="340" />
              <mxPoint x="620" y="340" />
            </Array>
          </mxGeometry>
        </mxCell>
        <mxCell id="vQBDDhqK6n7n9c23TMIv-62" value="&lt;font color=&quot;#ff33ff&quot;&gt;include&lt;/font&gt;" style="endArrow=open;endSize=12;dashed=1;html=1;rounded=0;strokeColor=#FF33FF;" edge="1" parent="1" source="vQBDDhqK6n7n9c23TMIv-45" target="vQBDDhqK6n7n9c23TMIv-41">
          <mxGeometry x="0.004" width="160" relative="1" as="geometry">
            <mxPoint x="230" y="440" as="sourcePoint" />
            <mxPoint x="230" y="255" as="targetPoint" />
            <mxPoint as="offset" />
          </mxGeometry>
        </mxCell>
        <mxCell id="vQBDDhqK6n7n9c23TMIv-66" value="" style="endArrow=open;endSize=12;dashed=1;html=1;rounded=0;strokeColor=#FF33FF;fillColor=#f8cecc;" edge="1" parent="1" source="vQBDDhqK6n7n9c23TMIv-42" target="vQBDDhqK6n7n9c23TMIv-35">
          <mxGeometry x="0.004" width="160" relative="1" as="geometry">
            <mxPoint x="270" y="350" as="sourcePoint" />
            <mxPoint x="330" y="170.25" as="targetPoint" />
            <mxPoint as="offset" />
            <Array as="points">
              <mxPoint x="270" y="340" />
              <mxPoint x="330" y="340" />
            </Array>
          </mxGeometry>
        </mxCell>
        <mxCell id="vQBDDhqK6n7n9c23TMIv-69" value="&lt;font color=&quot;#ff33ff&quot;&gt;include&lt;/font&gt;" style="endArrow=open;endSize=12;dashed=1;html=1;rounded=0;fillColor=#f8cecc;strokeColor=#FF33FF;" edge="1" parent="1" source="vQBDDhqK6n7n9c23TMIv-35" target="vQBDDhqK6n7n9c23TMIv-40">
          <mxGeometry x="-0.0284" width="160" relative="1" as="geometry">
            <mxPoint x="190" y="400" as="sourcePoint" />
            <mxPoint x="190" y="215" as="targetPoint" />
            <mxPoint as="offset" />
          </mxGeometry>
        </mxCell>
        <mxCell id="vQBDDhqK6n7n9c23TMIv-70" value="&lt;font color=&quot;#ff33ff&quot;&gt;include&lt;/font&gt;" style="endArrow=open;endSize=12;dashed=1;html=1;rounded=0;fillColor=#f8cecc;strokeColor=#FF33FF;" edge="1" parent="1" source="vQBDDhqK6n7n9c23TMIv-39" target="vQBDDhqK6n7n9c23TMIv-35">
          <mxGeometry x="-0.0284" width="160" relative="1" as="geometry">
            <mxPoint x="320" y="187" as="sourcePoint" />
            <mxPoint x="210" y="187" as="targetPoint" />
            <mxPoint as="offset" />
          </mxGeometry>
        </mxCell>
        <mxCell id="vQBDDhqK6n7n9c23TMIv-71" value="&lt;font color=&quot;#ff33ff&quot;&gt;include&lt;/font&gt;" style="endArrow=open;endSize=12;dashed=1;html=1;rounded=0;fillColor=#f8cecc;strokeColor=#FF33FF;" edge="1" parent="1" source="vQBDDhqK6n7n9c23TMIv-41" target="vQBDDhqK6n7n9c23TMIv-39">
          <mxGeometry x="-0.0284" width="160" relative="1" as="geometry">
            <mxPoint x="460" y="187" as="sourcePoint" />
            <mxPoint x="360" y="187" as="targetPoint" />
            <mxPoint as="offset" />
          </mxGeometry>
        </mxCell>
      </root>
    </mxGraphModel>
  </diagram>
</mxfile>
